HIERARCHY
ROOT Haolin_28_06:Solving:Hips
{
	OFFSET 0.000000 0.000000 0.000000
	CHANNELS 6 Xposition Yposition Zposition Xrotation Yrotation Zrotation
	JOINT Haolin_28_06:Solving:Spine
	{
		OFFSET 0.000000 -12.181966 2.015561
		CHANNELS 6 Xposition Yposition Zposition Xrotation Yrotation Zrotation
		JOINT Haolin_28_06:Solving:Spine1
		{
			OFFSET 0.000000 -8.890296 1.567602
			CHANNELS 6 Xposition Yposition Zposition Xrotation Yrotation Zrotation
			JOINT Haolin_28_06:Solving:Spine2
			{
				OFFSET 0.000000 -8.993092 0.786796
				CHANNELS 6 Xposition Yposition Zposition Xrotation Yrotation Zrotation
				JOINT Haolin_28_06:Solving:Spine3
				{
					OFFSET 0.000000 -9.027443 0.000000
					CHANNELS 6 Xposition Yposition Zposition Xrotation Yrotation Zrotation
					JOINT Haolin_28_06:Solving:Neck
					{
						OFFSET 0.000000 -11.606712 -1.160669
						CHANNELS 6 Xposition Yposition Zposition Xrotation Yrotation Zrotation
						JOINT Haolin_28_06:Solving:Neck1
						{
							OFFSET 0.000000 -7.471592 -0.653680
							CHANNELS 6 Xposition Yposition Zposition Xrotation Yrotation Zrotation
							JOINT Haolin_28_06:Solving:Head
							{
								OFFSET 0.000000 -7.386181 -1.302382
								CHANNELS 6 Xposition Yposition Zposition Xrotation Yrotation Zrotation
								JOINT Haolin_28_06:Solving:HeadEnd
								{
									OFFSET 0.000000 -9.728081 0.000002
									CHANNELS 6 Xposition Yposition Zposition Xrotation Yrotation Zrotation
									End Site
									{
										OFFSET 0.000000 -9.728081 0.000002
									}
								}
							}
						}
					}
					JOINT Haolin_28_06:Solving:RightShoulder
					{
						OFFSET 0.000000 -8.290508 -5.270916
						CHANNELS 6 Xposition Yposition Zposition Xrotation Yrotation Zrotation
						JOINT Haolin_28_06:Solving:RightArm
						{
							OFFSET -19.261074 -0.000008 0.000000
							CHANNELS 6 Xposition Yposition Zposition Xrotation Yrotation Zrotation
							JOINT Haolin_28_06:Solving:RightForeArm
							{
								OFFSET -30.691700 -0.000011 0.000000
								CHANNELS 6 Xposition Yposition Zposition Xrotation Yrotation Zrotation
								JOINT Haolin_28_06:Solving:RightHand
								{
									OFFSET -20.216934 -0.000008 0.000000
									CHANNELS 6 Xposition Yposition Zposition Xrotation Yrotation Zrotation
									JOINT Haolin_28_06:Solving:RightHandThumb1
									{
										OFFSET -4.948814 2.881329 -3.679893
										CHANNELS 6 Xposition Yposition Zposition Xrotation Yrotation Zrotation
										End Site
										{
											OFFSET -7.039886 -0.000004 -7.104978
										}
									}
									JOINT Haolin_28_06:Solving:RightHandMiddle1
									{
										OFFSET -13.196846 -0.000004 0.084595
										CHANNELS 6 Xposition Yposition Zposition Xrotation Yrotation Zrotation
										End Site
										{
											OFFSET -10.002037 -0.000004 0.000000
										}
									}
								}
							}
						}
					}
					JOINT Haolin_28_06:Solving:LeftShoulder
					{
						OFFSET 0.000000 -8.290508 -5.270916
						CHANNELS 6 Xposition Yposition Zposition Xrotation Yrotation Zrotation
						JOINT Haolin_28_06:Solving:LeftArm
						{
							OFFSET 19.261074 -0.000008 0.000000
							CHANNELS 6 Xposition Yposition Zposition Xrotation Yrotation Zrotation
							JOINT Haolin_28_06:Solving:LeftForeArm
							{
								OFFSET 30.691700 -0.000011 0.000000
								CHANNELS 6 Xposition Yposition Zposition Xrotation Yrotation Zrotation
								JOINT Haolin_28_06:Solving:LeftHand
								{
									OFFSET 20.216934 -0.000008 0.000000
									CHANNELS 6 Xposition Yposition Zposition Xrotation Yrotation Zrotation
									JOINT Haolin_28_06:Solving:LeftHandThumb1
									{
										OFFSET 4.948814 2.881329 -3.679893
										CHANNELS 6 Xposition Yposition Zposition Xrotation Yrotation Zrotation
										End Site
										{
											OFFSET 7.039886 -0.000004 -7.104978
										}
									}
									JOINT Haolin_28_06:Solving:LeftHandMiddle1
									{
										OFFSET 13.196846 -0.000004 0.084595
										CHANNELS 6 Xposition Yposition Zposition Xrotation Yrotation Zrotation
										End Site
										{
											OFFSET 10.002037 -0.000004 0.000000
										}
									}
								}
							}
						}
					}
				}
			}
		}
	}
	JOINT Haolin_28_06:Solving:RightUpLeg
	{
		OFFSET -10.083070 0.000000 0.000000
		CHANNELS 6 Xposition Yposition Zposition Xrotation Yrotation Zrotation
		JOINT Haolin_28_06:Solving:RightLeg
		{
			OFFSET 0.000000 47.042522 -0.000008
			CHANNELS 6 Xposition Yposition Zposition Xrotation Yrotation Zrotation
			JOINT Haolin_28_06:Solving:RightFoot
			{
				OFFSET 0.000000 38.766415 -0.000006
				CHANNELS 6 Xposition Yposition Zposition Xrotation Yrotation Zrotation
				JOINT Haolin_28_06:Solving:RightForeFoot
				{
					OFFSET 0.000000 3.531212 -0.000000
					CHANNELS 6 Xposition Yposition Zposition Xrotation Yrotation Zrotation
					JOINT Haolin_28_06:Solving:RightToeBase
					{
						OFFSET 0.000000 0.000000 -13.829352
						CHANNELS 6 Xposition Yposition Zposition Xrotation Yrotation Zrotation
						JOINT Haolin_28_06:Solving:RightToeBaseEnd
						{
							OFFSET 0.000000 0.000000 -4.034167
							CHANNELS 6 Xposition Yposition Zposition Xrotation Yrotation Zrotation
							End Site
							{
								OFFSET 0.000000 -4.034164 0.000004
							}
						}
					}
				}
			}
		}
	}
	JOINT Haolin_28_06:Solving:LeftUpLeg
	{
		OFFSET 10.083070 0.000000 0.000000
		CHANNELS 6 Xposition Yposition Zposition Xrotation Yrotation Zrotation
		JOINT Haolin_28_06:Solving:LeftLeg
		{
			OFFSET 0.000000 47.042522 -0.000008
			CHANNELS 6 Xposition Yposition Zposition Xrotation Yrotation Zrotation
			JOINT Haolin_28_06:Solving:LeftFoot
			{
				OFFSET 0.000000 38.766415 -0.000006
				CHANNELS 6 Xposition Yposition Zposition Xrotation Yrotation Zrotation
				JOINT Haolin_28_06:Solving:LeftForeFoot
				{
					OFFSET 0.000000 3.531212 -0.000000
					CHANNELS 6 Xposition Yposition Zposition Xrotation Yrotation Zrotation
					JOINT Haolin_28_06:Solving:LeftToeBase
					{
						OFFSET 0.000000 0.000000 -13.829352
						CHANNELS 6 Xposition Yposition Zposition Xrotation Yrotation Zrotation
						JOINT Haolin_28_06:Solving:LeftToeBaseEnd
						{
							OFFSET 0.000000 0.000000 -4.855067
							CHANNELS 6 Xposition Yposition Zposition Xrotation Yrotation Zrotation
							End Site
							{
								OFFSET 0.000000 -4.855064 0.000004
							}
						}
					}
				}
			}
		}
	}
}
MOTION
Frames: 4
Frame Time: 0.041667
-8.327291 26.583462 -94.021599 79.614099 4.071235 -0.972885 0.000001 -12.181964 2.015558 15.402307 -0.314541 -2.876735 -0.000001 -8.890272 1.567605 0.017575 0.034929 -0.856861 -0.000002 -8.993112 0.786801 -1.054154 -2.406449 0.099899 0.000000 -9.027431 -0.000001 1.282853 -1.533407 3.132147 0.000002 -11.606728 -1.160656 -2.618690 0.379333 0.597397 -0.000000 -7.471625 -0.653686 -1.092385 -1.871931 -0.072197 -0.000001 -7.386171 -1.302377 3.431071 -0.156504 0.189570 -0.000001 -9.728142 0.000000 0.000001 -0.000000 -0.000000 0.000002 -8.290531 -5.270905 -0.000013 21.599964 13.769917 -19.261078 0.000001 0.000002 -17.227793 -13.456902 -51.686422 -30.691708 -0.000013 -0.000001 -22.285072 -26.570145 -10.387686 -20.216913 -0.000017 0.000006 5.174021 -14.772477 19.551164 -4.948806 2.881303 -3.679867 -0.000000 0.000005 0.000002 -13.196852 -0.000027 0.084615 -0.000004 0.000002 0.000002 -0.000002 -8.290531 -5.270905 -0.000011 -14.962846 -14.630752 19.261082 -0.000016 0.000002 -23.321123 3.845970 47.098252 30.691683 0.000014 0.000005 -3.128811 36.505175 1.862511 20.216936 0.000007 0.000000 0.390379 1.326303 -16.402604 4.948790 2.881319 -3.679873 -0.000002 -0.000005 -0.000002 13.196828 -0.000015 0.084604 -0.000000 0.000000 -0.000003 -10.083069 0.000005 -0.000002 14.285403 20.206947 4.074883 -0.000001 47.042534 -0.000004 -2.678066 -0.000003 -0.000000 -0.000001 38.766411 -0.000002 5.796971 23.401536 -19.192241 0.000002 3.531204 -0.000001 0.000000 -0.000002 -0.000002 0.000005 0.000018 -13.829350 2.247258 -0.000002 0.000001 -0.000001 -0.000008 -4.034176 -0.000001 0.000006 -0.000001 10.083070 0.000011 -0.000000 13.710284 -15.893606 -3.051141 0.000003 47.042519 -0.000007 2.050594 0.000000 0.000000 -0.000006 38.766403 -0.000006 5.142638 -12.406420 15.133042 -0.000001 3.531204 0.000003 0.000001 -0.000001 0.000000 0.000002 0.000005 -13.829348 3.667174 -0.000000 0.000001 0.000001 0.000007 -4.855066 -0.000001 0.000004 -0.000000 
-8.328886 26.562605 -94.018372 79.650292 4.032557 -0.990784 0.000003 -12.181954 2.015550 15.396966 -0.314532 -2.889122 -0.000001 -8.890269 1.567597 0.021964 0.037126 -0.859254 0.000001 -8.993108 0.786797 -1.021089 -2.382079 0.095546 -0.000001 -9.027434 -0.000003 1.310827 -1.521057 3.115747 0.000000 -11.606687 -1.160667 -2.741521 0.344606 0.583208 -0.000000 -7.471588 -0.653680 -1.126226 -1.937596 -0.072491 0.000000 -7.386213 -1.302385 3.367319 -0.164589 0.204925 0.000002 -9.728104 0.000001 0.000000 0.000000 0.000000 0.000000 -8.290474 -5.270915 -0.000010 21.554156 13.590288 -19.261086 0.000013 0.000003 -16.437960 -13.848323 -52.621516 -30.691692 0.000015 -0.000003 -22.504783 -26.848161 -10.598305 -20.216930 -0.000014 0.000001 5.231531 -15.075945 19.393477 -4.948805 2.881325 -3.679870 0.000002 0.000009 0.000003 -13.196834 0.000011 0.084615 -0.000000 0.000002 0.000005 -0.000001 -8.290474 -5.270915 -0.000010 -14.862775 -14.355630 19.261065 0.000034 0.000000 -22.401159 3.772395 48.355786 30.691694 -0.000016 -0.000009 -3.126165 37.093750 1.886656 20.216938 -0.000013 0.000003 0.574941 1.941027 -16.503120 4.948789 2.881321 -3.679881 0.000006 0.000003 -0.000003 13.196837 -0.000005 0.084583 0.000000 0.000000 -0.000001 -10.083076 0.000015 -0.000009 14.258899 20.185955 4.073562 -0.000001 47.042526 -0.000010 -2.707829 0.000002 -0.000001 0.000002 38.766403 -0.000012 5.801631 23.464849 -19.215890 -0.000002 3.531220 0.000001 0.000001 0.000001 -0.000002 0.000003 -0.000004 -13.829356 2.258430 -0.000008 0.000001 -0.000001 0.000008 -4.034173 -0.000000 0.000007 -0.000003 10.083071 0.000021 -0.000011 13.679802 -15.847700 -3.042392 -0.000001 47.042545 -0.000001 2.005462 0.000001 -0.000000 -0.000008 38.766438 -0.000009 5.168061 -12.416460 15.173282 0.000001 3.531204 0.000002 0.000000 -0.000001 0.000001 0.000003 0.000005 -13.829355 3.673982 -0.000004 0.000000 -0.000000 -0.000001 -4.855053 -0.000001 0.000006 0.000001 
-8.329808 26.540543 -94.016464 79.691471 3.998636 -1.011708 0.000000 -12.181961 2.015573 15.390219 -0.314170 -2.894018 -0.000002 -8.890285 1.567598 0.022845 0.039424 -0.861114 0.000001 -8.993097 0.786792 -0.986796 -2.359291 0.088568 -0.000003 -9.027425 -0.000005 1.340121 -1.507960 3.094624 0.000001 -11.606736 -1.160675 -2.878153 0.300187 0.582993 0.000001 -7.471592 -0.653677 -1.170242 -1.992400 -0.077693 -0.000000 -7.386165 -1.302382 3.335748 -0.168821 0.206308 -0.000000 -9.728073 -0.000001 0.000000 0.000000 -0.000000 -0.000001 -8.290543 -5.270919 -0.000011 21.497390 13.426523 -19.261068 -0.000041 -0.000001 -15.632611 -14.323869 -53.599486 -30.691675 -0.000009 0.000005 -22.695902 -27.014013 -10.755812 -20.216930 -0.000016 -0.000000 5.244828 -15.347730 19.127765 -4.948798 2.881335 -3.679897 -0.000005 0.000002 0.000011 -13.196824 0.000022 0.084583 0.000002 -0.000001 0.000008 0.000001 -8.290543 -5.270919 -0.000007 -14.774420 -14.051157 19.261076 -0.000004 0.000001 -21.517480 3.757416 49.649075 30.691696 -0.000013 0.000005 -2.990860 37.540871 1.823462 20.216934 -0.000025 0.000009 0.736029 2.487809 -16.486794 4.948813 2.881341 -3.679877 -0.000003 -0.000007 -0.000002 13.196845 -0.000025 0.084585 0.000001 -0.000000 -0.000001 -10.083068 0.000015 0.000009 14.221717 20.162177 4.078549 0.000003 47.042526 -0.000010 -2.730446 -0.000006 0.000000 0.000007 38.766403 -0.000009 5.808256 23.526400 -19.242393 -0.000002 3.531205 -0.000004 0.000001 -0.000002 -0.000002 -0.000005 0.000020 -13.829357 2.258619 0.000010 -0.000003 -0.000001 0.000008 -4.034184 0.000002 0.000004 -0.000000 10.083067 -0.000003 0.000007 13.643530 -15.818471 -3.029994 0.000001 47.042526 -0.000004 1.962355 0.000003 -0.000000 -0.000006 38.766415 -0.000005 5.198198 -12.403948 15.189823 0.000001 3.531219 -0.000000 0.000000 -0.000003 -0.000000 0.000006 -0.000003 -13.829348 3.678069 0.000001 -0.000001 0.000003 -0.000008 -4.855056 -0.000000 0.000000 -0.000001 
-8.332475 26.522352 -94.013412 79.724365 3.956594 -1.019606 -0.000000 -12.181963 2.015568 15.384156 -0.318544 -2.905278 0.000000 -8.890308 1.567599 0.024021 0.041724 -0.863213 0.000001 -8.993112 0.786797 -0.944901 -2.322435 0.071467 -0.000003 -9.027456 0.000001 1.369948 -1.490819 3.076701 0.000003 -11.606718 -1.160673 -3.029789 0.248771 0.582072 -0.000001 -7.471622 -0.653685 -1.182954 -2.051452 -0.087718 -0.000001 -7.386178 -1.302378 3.281152 -0.172881 0.204347 0.000001 -9.728096 -0.000003 -0.000000 -0.000000 0.000000 0.000001 -8.290512 -5.270922 -0.000012 21.436393 13.301507 -19.261072 0.000021 -0.000004 -14.837420 -14.886821 -54.656728 -30.691679 -0.000035 -0.000002 -22.947369 -27.068313 -10.905262 -20.216930 0.000012 -0.000015 5.183925 -15.545342 18.702072 -4.948795 2.881306 -3.679866 -0.000004 0.000005 -0.000004 -13.196837 -0.000015 0.084613 -0.000001 -0.000001 0.000001 -0.000002 -8.290512 -5.270921 -0.000008 -14.716059 -13.744073 19.261082 0.000008 -0.000001 -20.620293 3.863417 50.980669 30.691689 -0.000008 -0.000003 -2.806348 37.864776 1.723401 20.216936 -0.000001 -0.000001 0.856120 2.916106 -16.369225 4.948801 2.881352 -3.679874 -0.000007 0.000012 -0.000006 13.196842 -0.000003 0.084588 -0.000006 -0.000004 0.000004 -10.083069 0.000009 0.000008 14.202135 20.152123 4.067037 -0.000004 47.042526 -0.000008 -2.756898 0.000003 0.000000 0.000004 38.766422 -0.000012 5.810587 23.570853 -19.243505 0.000001 3.531205 -0.000006 0.000000 -0.000004 -0.000001 0.000001 0.000010 -13.829359 2.252667 -0.000010 0.000001 -0.000002 -0.000000 -4.034175 -0.000000 -0.000000 -0.000002 10.083070 -0.000005 0.000002 13.615062 -15.768631 -3.032780 -0.000001 47.042522 -0.000007 1.918804 0.000003 0.000000 -0.000005 38.766434 -0.000005 5.207902 -12.406594 15.206882 -0.000001 3.531219 -0.000001 0.000000 0.000004 -0.000001 0.000001 0.000024 -13.829353 3.701399 -0.000001 -0.000002 -0.000003 -0.000008 -4.855063 0.000001 0.000002 0.000000 
